<svg width="100" height="100" viewBox="0 0 100 100" fill="none" xmlns="http://www.w3.org/2000/svg">
<path d="M24.9705 71.6863H34.235V49.1869L21 39.2607V67.7159C21 69.9129 22.7801 71.6863 24.9705 71.6863Z" fill="#4285F4"/>
<path d="M65.9988 71.6863H75.2633C77.4603 71.6863 79.2338 69.9062 79.2338 67.7159V39.2607L65.9988 49.1869" fill="#34A853"/>
<path d="M65.9988 31.9818V49.1869L79.2338 39.2607V33.967C79.2338 29.0568 73.6288 26.2576 69.7046 29.2024" fill="#FBBC04"/>
<path d="M34.235 49.1869L34.235 31.9815L50.1169 43.8929L65.9988 31.9818V49.1869L50.1169 61.0984" fill="#EA4335"/>
<path d="M21 33.967V39.2607L34.235 49.1869L34.235 31.9815L30.5292 29.2024C26.5984 26.2576 21 29.0568 21 33.967Z" fill="#C5221F"/>
</svg>
