<svg width="100" height="100" viewBox="0 0 100 100" fill="none" xmlns="http://www.w3.org/2000/svg">
<path d="M25 75L28.5874 61.6731C25.6942 56.4816 24.7751 50.4235 25.9985 44.6106C27.222 38.7977 30.506 33.6198 35.2479 30.027C39.9899 26.4343 45.8717 24.6678 51.8141 25.0516C57.7564 25.4354 63.3607 27.9438 67.5985 32.1165C71.8364 36.2892 74.4235 41.8463 74.8851 47.7681C75.3468 53.6899 73.652 59.5791 70.1118 64.3551C66.5716 69.1311 61.4234 72.4735 55.612 73.7689C49.8005 75.0644 43.7156 74.226 38.4739 71.4077L25 75ZM39.1236 66.4206L39.9569 66.9137C43.7536 69.1584 48.1881 70.0872 52.5693 69.5556C56.9505 69.0239 61.0324 67.0616 64.1788 63.9744C67.3251 60.8872 69.3593 56.8485 69.9643 52.4878C70.5692 48.127 69.711 43.6891 67.5233 39.8657C65.3356 36.0422 61.9414 33.048 57.8695 31.3497C53.7976 29.6513 49.2769 29.3442 45.0117 30.4761C40.7466 31.6081 36.9767 34.1155 34.2894 37.6078C31.6022 41.1 30.1485 45.3808 30.1551 49.7831C30.1515 53.4333 31.1636 57.0129 33.0787 60.1235L33.6013 60.9828L31.5957 68.4211L39.1236 66.4206Z" fill="#00D95F"/>
<path fill-rule="evenodd" clip-rule="evenodd" d="M59.3481 53.2051C58.8596 52.8121 58.2877 52.5355 57.6758 52.3964C57.0639 52.2572 56.4282 52.2592 55.8172 52.4021C54.8992 52.7825 54.306 54.2194 53.7128 54.9379C53.5877 55.1101 53.4039 55.2309 53.1959 55.2776C52.9879 55.3243 52.7699 55.2937 52.5829 55.1915C49.222 53.8785 46.4048 51.4706 44.589 48.359C44.4341 48.1648 44.3608 47.9183 44.3845 47.6713C44.4082 47.4243 44.5271 47.1961 44.7161 47.0347C45.3777 46.3815 45.8635 45.5723 46.1285 44.6821C46.1873 43.7002 45.9618 42.7222 45.4788 41.8646C45.1054 40.6623 44.3948 39.5917 43.4309 38.7794C42.9337 38.5564 42.3825 38.4816 41.8437 38.5641C41.3049 38.6466 40.8015 38.8828 40.3943 39.2443C39.6874 39.8526 39.1262 40.6114 38.7523 41.4648C38.3783 42.3181 38.201 43.2442 38.2334 44.175C38.2356 44.6976 38.302 45.218 38.4311 45.7246C38.7591 46.9416 39.2634 48.1044 39.9282 49.1761C40.4078 49.997 40.9312 50.7917 41.4959 51.5569C43.3314 54.0701 45.6385 56.2039 48.2894 57.84C49.6196 58.6713 51.0413 59.3473 52.5264 59.8545C54.0692 60.552 55.7725 60.8198 57.4556 60.6293C58.4145 60.4845 59.3231 60.1069 60.1013 59.5296C60.8796 58.9523 61.5036 58.1931 61.9186 57.3187C62.1624 56.7905 62.2364 56.2 62.1305 55.6282C61.8762 54.4589 60.3085 53.7686 59.3481 53.2051Z" fill="#00D95F"/>
</svg>
